<?xml version="1.0" encoding="UTF-8" standalone="no"?>
<!DOCTYPE svg PUBLIC "-//W3C//DTD SVG 1.1//EN" "http://www.w3.org/Graphics/SVG/1.1/DTD/svg11.dtd">
<svg width="100%" height="100%" viewBox="0 0 16 16" version="1.1" xmlns="http://www.w3.org/2000/svg" xmlns:xlink="http://www.w3.org/1999/xlink" xml:space="preserve" xmlns:serif="http://www.serif.com/" style="fill-rule:evenodd;clip-rule:evenodd;stroke-linejoin:round;stroke-miterlimit:2;">
    <rect x="0" y="2" width="16" height="12" style="fill:white;"/>
    <path d="M0,2L16,2L16,14L0,14L0,2ZM1.5,4.169L8,8.231L14.5,4.169L14.5,3.5L1.5,3.5L1.5,4.169ZM14.5,5.938L8,10L1.5,5.938L1.5,12.5L14.5,12.5L14.5,5.938Z" style="fill:rgb(51,51,51);"/>
    <path d="M14.5,5.938L8,10L1.5,5.938L1.5,12.5L14.5,12.5L14.5,5.938Z" style="fill-opacity:0.15;"/>
    <g transform="matrix(-0.7623,0,0,0.7623,14.8607,3.32511)">
        <g transform="matrix(1,0,0,1,1,-3.73478)">
            <path d="M12.25,4.25L12.25,7L10.75,7L10.75,4.25L8,4.25L8,2.75L10.75,2.75L10.75,0L12.25,0L12.25,2.75L15,2.75L15,4.25L12.25,4.25Z" style="fill:rgb(223,98,98);fill-rule:nonzero;"/>
        </g>
        <g transform="matrix(0.945392,0,0,0.928149,0,1.14961)">
            <path d="M3.5,8.5L0,10L0,11L3.5,12.5L5,16L6,16L7.5,12.5L11,11L11,10L7.5,8.5L6,5L5,5L3.5,8.5Z" style="fill:rgb(223,98,98);"/>
        </g>
        <path d="M12,14.5L13.5,13L15,14.5L13.5,16L12,14.5Z" style="fill:rgb(223,98,98);fill-rule:nonzero;"/>
        <g transform="matrix(1,0,0,1,2,0)">
            <path d="M15,9C15.552,9 16,8.552 16,8C16,7.448 15.552,7 15,7C14.448,7 14,7.448 14,8C14,8.552 14.448,9 15,9Z" style="fill:rgb(223,98,98);fill-rule:nonzero;"/>
        </g>
    </g>
</svg>
